<svg id="visual" viewBox="0 0 960 250" width="960" height="250" xmlns="http://www.w3.org/2000/svg" xmlns:xlink="http://www.w3.org/1999/xlink" version="1.1"><rect x="0" y="0" width="960" height="250" fill="#7e7e7e"></rect><path d="M0 198L22.8 196.8C45.7 195.7 91.3 193.3 137 188.2C182.7 183 228.3 175 274 175.3C319.7 175.7 365.3 184.3 411.2 191.7C457 199 503 205 548.8 202.7C594.7 200.3 640.3 189.7 686 188C731.7 186.3 777.3 193.7 823 193.7C868.7 193.7 914.3 186.3 937.2 182.7L960 179L960 251L937.2 251C914.3 251 868.7 251 823 251C777.3 251 731.7 251 686 251C640.3 251 594.7 251 548.8 251C503 251 457 251 411.2 251C365.3 251 319.7 251 274 251C228.3 251 182.7 251 137 251C91.3 251 45.7 251 22.8 251L0 251Z" fill="#CCCCCC" stroke-linecap="round" stroke-linejoin="miter"></path></svg>